<?xml version="1.0"?>
<svg xmlns="http://www.w3.org/2000/svg" xmlns:xlink="http://www.w3.org/1999/xlink" xmlns:svgjs="http://svgjs.com/svgjs" version="1.1" width="512" height="512" x="0" y="0" viewBox="0 0 512.001 512.001" style="enable-background:new 0 0 512 512" xml:space="preserve" class=""><g>
<g xmlns="http://www.w3.org/2000/svg">
	<path style="" d="M448.595,376.555h-99.072c-46.54,0-88.552-25.772-109.641-67.258l-45.657-89.815   c-14.744-29.002-44.112-47.018-76.647-47.018H18.507C8.286,172.465,0,164.179,0,153.958s8.286-18.507,18.507-18.507h99.072   c46.54,0,88.552,25.772,109.641,67.259l45.657,89.815c14.744,29.001,44.112,47.018,76.647,47.018h99.072   C473.05,339.542,473.074,376.555,448.595,376.555z" fill="#6f48c9" data-original="#3a4de2" class=""/>
	<path style="" d="M385.173,403.617v-91.149c0-18.43,19.996-29.944,35.929-20.743l78.937,45.573   c15.961,9.215,15.933,32.288,0,41.487l-78.937,45.574C405.147,433.574,385.173,422.02,385.173,403.617z" fill="#6f48c9" data-original="#3a4de2" class=""/>
</g>
<g xmlns="http://www.w3.org/2000/svg">
	<path style="" d="M117.579,376.549c-10.221,0-18.507-8.286-18.507-18.507s8.286-18.507,18.507-18.507   c32.535,0,61.903-18.016,76.647-47.018l45.657-89.815c21.089-41.487,63.101-67.258,109.641-67.258h99.072   c24.455,0,24.481,37.013,0,37.013h-99.072c-32.535,0-61.905,18.016-76.647,47.018l-45.657,89.815   C206.13,350.777,164.118,376.549,117.579,376.549z" fill="#9f75ff" data-original="#ff52a0" class=""/>
	<path style="" d="M53.496,376.549h-34.99C8.286,376.549,0,368.263,0,358.043s8.286-18.507,18.507-18.507h34.99   c10.221,0,18.507,8.286,18.507,18.507S63.718,376.549,53.496,376.549z" fill="#9f75ff" data-original="#ff52a0" class=""/>
	<path style="" d="M421.103,87.639l78.937,45.574c15.96,9.215,15.935,32.288,0,41.487l-78.937,45.574   c-15.96,9.215-35.929-2.344-35.929-20.743v-91.149C385.173,89.957,405.165,78.436,421.103,87.639z" fill="#9f75ff" data-original="#ff52a0" class=""/>
</g>
<g xmlns="http://www.w3.org/2000/svg">
</g>
<g xmlns="http://www.w3.org/2000/svg">
</g>
<g xmlns="http://www.w3.org/2000/svg">
</g>
<g xmlns="http://www.w3.org/2000/svg">
</g>
<g xmlns="http://www.w3.org/2000/svg">
</g>
<g xmlns="http://www.w3.org/2000/svg">
</g>
<g xmlns="http://www.w3.org/2000/svg">
</g>
<g xmlns="http://www.w3.org/2000/svg">
</g>
<g xmlns="http://www.w3.org/2000/svg">
</g>
<g xmlns="http://www.w3.org/2000/svg">
</g>
<g xmlns="http://www.w3.org/2000/svg">
</g>
<g xmlns="http://www.w3.org/2000/svg">
</g>
<g xmlns="http://www.w3.org/2000/svg">
</g>
<g xmlns="http://www.w3.org/2000/svg">
</g>
<g xmlns="http://www.w3.org/2000/svg">
</g>
</g></svg>
